<svg width="445" height="390" viewBox="0 0 445 390" fill="none" xmlns="http://www.w3.org/2000/svg">
<g clip-path="url(#clip0_51_400)">
<path d="M53.0899 71.3367L66.1948 133.521L205.612 104.691L83.3063 214.717L38.3546 255.077L124.084 283.341L292.209 132.497L308.674 212.588L416.846 189.791L378.052 2.43948L53.0899 71.3367Z" fill="white"/>
<path d="M292.209 132.497L124.084 283.342L142.637 371.38L310.198 219.663L308.674 212.588L292.209 132.497Z" fill="#0E5CF2"/>
<path d="M416.846 189.792L308.674 212.588L310.198 219.663L327.623 300.542L435.399 277.829L416.846 189.792Z" fill="#0E5CF2"/>
<path d="M124.084 283.342L38.3545 255.078L56.8931 343.045L142.637 371.38L124.084 283.342Z" fill="white"/>
<path d="M205.612 104.691L66.1948 133.521L83.3064 214.717L205.612 104.691Z" fill="white"/>
<path d="M66.1948 133.521L53.0899 71.3367L378.052 2.43948L416.846 189.791M66.1948 133.521L205.612 104.691L83.3063 214.717M66.1948 133.521L83.3063 214.717M416.846 189.791L308.674 212.588M416.846 189.791L435.399 277.828L327.623 300.541L310.198 219.662M83.3063 214.717L38.3546 255.077M38.3546 255.077L124.084 283.341M38.3546 255.077L56.8931 343.045L142.637 371.38M124.084 283.341L292.209 132.497L308.674 212.588M124.084 283.341L142.637 371.38M142.637 371.38L310.198 219.662M308.674 212.588L310.198 219.662" stroke="#181818" stroke-linecap="round" stroke-linejoin="round"/>
</g>
<defs>
<clipPath id="clip0_51_400">
<rect width="387.57" height="315.544" fill="white" transform="translate(0 80.5386) rotate(-11.9005)"/>
</clipPath>
</defs>
</svg>
