<svg width="105" height="103" viewBox="0 0 105 103" fill="none" xmlns="http://www.w3.org/2000/svg">
<path d="M75.2067 71.4313L67.2769 54.905L49.2328 66.1449L33.8005 75.6225L15.6142 37.712L1.03662 46.7133L27.0105 101.15L75.2067 71.4313Z" fill="white"/>
<path d="M32.8027 56.2674L64.2604 36.7794L47.298 1L15.6143 20.591L24.0098 38.0168L32.8027 56.2674Z" fill="white"/>
<path d="M83.176 37.1918L73.9237 17.6008L66.008 1.20622L47.2979 1L64.2602 36.7794L83.176 37.1918Z" fill="white"/>
<path d="M33.8005 75.6225L49.2329 66.1449L44.6252 56.5252L32.8027 56.2674L24.0098 38.0169L15.6143 37.712L33.8005 75.6225Z" fill="white"/>
<path d="M83.176 37.1919L64.2602 36.7794L32.8025 56.2674L44.625 56.5252L51.7183 56.6799L79.7337 39.3244L83.176 37.1919Z" fill="#F2890E"/>
<path d="M49.2327 66.1448L67.2768 54.905L87.288 55.2363L79.7338 39.3243L51.7184 56.6799L44.625 56.5251L49.2327 66.1448Z" fill="white"/>
<path d="M67.2769 54.905L75.2067 71.4312L103.634 72.0433L77.8304 17.6008H73.9238L83.1762 37.1918L79.7339 39.3243L87.2881 55.2363L67.2769 54.905Z" fill="white"/>
<path d="M75.2067 71.4312L27.0105 101.15L55.625 101.739L103.634 72.0432L75.2067 71.4312Z" fill="#F2890E"/>
<path d="M75.2067 71.4312L67.2769 54.905M75.2067 71.4312L27.0105 101.15M75.2067 71.4312L103.634 72.0433M67.2769 54.905L49.2329 66.1448M67.2769 54.905L87.2882 55.2363L79.7339 39.3243M27.0105 101.15L1.03662 46.7133L15.6142 37.712M27.0105 101.15L55.6249 101.739L103.634 72.0433M103.634 72.0433L77.8304 17.6008H73.9238M49.2329 66.1448L33.8005 75.6224L15.6142 37.712M49.2329 66.1448L44.6251 56.5251M79.7339 39.3243L51.7185 56.6798M79.7339 39.3243L83.1762 37.1918M15.6142 37.712L24.0098 38.0168M44.6251 56.5251L32.8026 56.2674M44.6251 56.5251L51.7185 56.6798M24.0098 38.0168L32.8026 56.2674M24.0098 38.0168L15.6142 20.591L47.298 1M73.9238 17.6008L83.1762 37.1918M73.9238 17.6008L66.0081 1.20622L47.298 1M51.7185 56.6798L83.1762 37.1918M83.1762 37.1918L64.2603 36.7794M47.298 1L64.2603 36.7794M64.2603 36.7794L32.8026 56.2674" stroke="#181818" stroke-linecap="round" stroke-linejoin="round"/>
</svg>
