<svg width="94" height="89" viewBox="0 0 94 89" fill="none" xmlns="http://www.w3.org/2000/svg">
<path d="M62.909 88.6893L93.5595 71.1441V53.6373L78.215 62.2371V44.5383V26.8396L47.4102 44.6152V62.2371L62.9861 53.2533L62.909 88.6893Z" fill="white"/>
<path d="M47.4101 44.6152L78.2149 26.8396L62.7983 17.9781L47.5101 9.19032L32.2219 0.402588L1.18359 18.1561L47.4101 44.6152Z" fill="white"/>
<path d="M47.4101 62.2371V44.6152L1.18359 18.1561V35.8179L16.8875 44.7929L47.4101 62.2371Z" fill="white"/>
<path d="M62.986 53.2534L47.41 62.2371L16.8875 44.793V62.4943L62.9089 88.6894L62.986 53.2534Z" fill="#0E5CF2"/>
<path d="M78.2148 62.2371L93.5594 53.6373L78.2148 44.5383V62.2371Z" fill="white"/>
<path d="M62.7982 17.9782L78.2148 9.23345L62.7982 0.310669L47.51 9.19038L62.7982 17.9782Z" fill="white"/>
<path d="M78.215 26.8396V9.2334L62.7983 17.9781L78.215 26.8396Z" fill="#0E5CF2"/>
<path d="M62.9089 88.6894L93.5594 71.1441V53.6374M62.9089 88.6894L62.986 53.2534L47.4101 62.2371M62.9089 88.6894L16.8875 62.4943V44.793M93.5594 53.6374L78.2149 62.2371V44.5384M93.5594 53.6374L78.2149 44.5384M47.4101 62.2371V44.6153M47.4101 62.2371L1.18359 35.8179M47.4101 62.2371L16.8875 44.793M16.8875 44.793L1.18359 35.8179M78.2149 44.5384V26.8397M78.2149 26.8397L47.4101 44.6153M78.2149 26.8397V9.23346M78.2149 26.8397L62.7983 17.9782M47.4101 44.6153L1.18359 18.1562M78.2149 9.23346L62.7983 17.9782M78.2149 9.23346L62.7983 0.310669L47.5101 9.19038M62.7983 17.9782L47.5101 9.19038M1.18359 18.1562L32.2219 0.402656L47.5101 9.19038M1.18359 18.1562V35.8179" stroke="#181818" stroke-linecap="round" stroke-linejoin="round"/>
</svg>
