<svg width="82" height="97" viewBox="0 0 82 97" fill="none" xmlns="http://www.w3.org/2000/svg">
<g clip-path="url(#clip0_23_329)">
<path d="M5.28271 11.2325V68.7232L20.1493 77.1916V48.4481C20.1493 44.8726 22.4547 41.7298 25.842 41.5793C30.0761 41.3911 36.6316 46.6218 39.2502 55.7873C40.1911 59.0805 40.1272 63.1924 40.1102 65.3378C40.0462 73.7044 40.129 83.8175 40.1911 88.6727L54.6814 97L54.7755 39.8386L5.28271 11.2325Z" fill="white"/>
<path d="M5.28271 11.2326L54.7755 39.8386L74.6291 28.5314L25.1851 -0.385986L5.28271 11.2326Z" fill="white"/>
<path d="M20.1494 48.4481V77.1916L40.1103 65.3378C40.1273 63.1924 40.1912 59.0806 39.2503 55.7873C36.6317 46.6218 30.0762 41.3912 25.8421 41.5794C22.4548 41.7299 20.1494 44.8726 20.1494 48.4481Z" fill="#19B156"/>
<path d="M54.7754 39.8387L54.6814 97.0001L74.629 85.6729V28.5315L54.7754 39.8387Z" fill="white"/>
<path d="M5.28271 11.2326V68.7232L20.1493 77.1916M5.28271 11.2326L54.7755 39.8386M5.28271 11.2326L25.1851 -0.385986L74.6291 28.5314M20.1493 77.1916V48.4481C20.1493 44.8726 22.4547 41.7298 25.842 41.5794C30.0761 41.3912 36.6316 46.6218 39.2502 55.7873C40.1911 59.0806 40.1272 63.1924 40.1103 65.3378M20.1493 77.1916L40.1103 65.3378M54.7755 39.8386L54.6814 97M54.7755 39.8386L74.6291 28.5314M74.6291 28.5314V85.6728L54.6814 97M40.1103 65.3378C40.0462 73.7045 40.129 83.8175 40.1911 88.6727L54.6814 97" stroke="#181818" stroke-linecap="round" stroke-linejoin="round"/>
</g>
<defs>
<clipPath id="clip0_23_329">
<rect width="82" height="97" fill="white"/>
</clipPath>
</defs>
</svg>
